<svg xmlns="http://www.w3.org/2000/svg" viewBox="0 0 29 29"><defs><style>.cls-1{fill:#7979cf;}.cls-2{fill:#fff;}</style></defs><g id="Layer_2" data-name="Layer 2"><g id="Layer_1-2" data-name="Layer 1"><circle class="cls-1" cx="14.5" cy="14.5" r="14.5"/><path class="cls-2" d="M14.5,18.55a3.73,3.73,0,0,0,3.74-3.74V9.44a3.74,3.74,0,1,0-7.48,0v5.37A3.73,3.73,0,0,0,14.5,18.55ZM11.64,9.44a2.86,2.86,0,1,1,5.72,0v5.37a2.86,2.86,0,0,1-5.72,0Z"/><path class="cls-2" d="M20,14.76a.44.44,0,1,0-.88,0,4.62,4.62,0,0,1-9.24,0,.44.44,0,0,0-.88,0,5.51,5.51,0,0,0,5.06,5.5v2.16H11.2a.44.44,0,0,0,0,.88h6.6a.44.44,0,0,0,0-.88H14.94V20.26A5.51,5.51,0,0,0,20,14.76Z"/><path class="cls-2" d="M13,12.56H16a.41.41,0,0,0,.44-.44.42.42,0,0,0-.44-.44H13a.42.42,0,0,0-.44.44A.47.47,0,0,0,13,12.56Z"/><path class="cls-2" d="M13,14.76H16a.41.41,0,0,0,.44-.44.42.42,0,0,0-.44-.44H13a.42.42,0,0,0-.44.44A.47.47,0,0,0,13,14.76Z"/><path class="cls-2" d="M13,10.36H16a.41.41,0,0,0,.44-.44A.42.42,0,0,0,16,9.48H13a.42.42,0,0,0-.44.44A.47.47,0,0,0,13,10.36Z"/></g></g></svg>