<svg xmlns="http://www.w3.org/2000/svg" viewBox="0 0 25.47 22.41"><defs><style>.cls-1{fill:#212121;}</style></defs><g id="Layer_2" data-name="Layer 2"><g id="Layer_1-2" data-name="Layer 1"><path class="cls-1" d="M3.8,14.09h-1a.4.4,0,0,0-.41.4.41.41,0,0,0,.41.4h1a.4.4,0,1,0,0-.8Z"/><path class="cls-1" d="M23.6,6.89V.4a.39.39,0,0,0-.21-.35.38.38,0,0,0-.41,0L14.76,5.48H13.32v-1a.4.4,0,0,0-.4-.4H10a.4.4,0,0,0-.4.4v1A1.92,1.92,0,0,0,7.74,7.4v3.45a1.91,1.91,0,0,0,1.91,1.92h.59l0,.26a4.94,4.94,0,0,0-2.33.7v0a.4.4,0,0,0-.41-.4H5.92v-.41a.4.4,0,0,0-.41-.4H.4a.4.4,0,0,0-.4.4V22a.4.4,0,0,0,.4.4H5.51a.4.4,0,0,0,.41-.4V21.6H7.54A.42.42,0,0,0,8,21.2a9.4,9.4,0,0,0,4.14.72H15a1.31,1.31,0,0,0,1.33-1.23,1.16,1.16,0,0,0-.1-.49,1.22,1.22,0,0,0,.8-1.15,1.19,1.19,0,0,0-.23-.72,1.23,1.23,0,0,0-.14-2,1.23,1.23,0,0,0-1.07-1.84h-.4a1.22,1.22,0,0,0,.08-.43,1.24,1.24,0,0,0-1.24-1.23h0v-.1h.72L23,18.18a.34.34,0,0,0,.22.07.45.45,0,0,0,.19-.05.4.4,0,0,0,.21-.35V14a.4.4,0,0,0-.8,0V17.1l-7.52-5V6.1L22.8,1.15V12.74a.4.4,0,1,0,.8,0V11.36a2.27,2.27,0,0,0,0-4.47ZM5.11,13.69V21.6H.8V13.28H5.11Zm2,.94v6.16H5.92v-6.7H7.14Zm3.28-9.77h2.09v.62H10.42ZM14.5,14.1a.44.44,0,0,1-.18.36l-.13-.77A.43.43,0,0,1,14.5,14.1Zm-.43,1.24h1.56a.42.42,0,0,1,.42.42.43.43,0,0,1-.33.42H12.94a.4.4,0,1,0,0,.8H16a.43.43,0,1,1,0,.85h-3a.41.41,0,0,0,0,.81h2.85a.42.42,0,0,1,.34.41.42.42,0,0,1-.43.42H13.08a.41.41,0,0,0,0,.81h2.13a.43.43,0,0,1,.36.42.53.53,0,0,1-.53.43H12.11c-2.84,0-3.88-.64-4.16-.86V14.77a3.71,3.71,0,0,1,2.45-.94L10.61,15a.4.4,0,0,0,.39.33h3.07Zm-3-2.57h2.16l.1.56h0l.19,1.2H11.35ZM14.48,12H9.65a1.11,1.11,0,0,1-1.11-1.11V7.4A1.11,1.11,0,0,1,9.65,6.29h4.83V12Zm9.12-1.42V7.71a1.47,1.47,0,0,1,0,2.83Z"/></g></g></svg>