<svg xmlns="http://www.w3.org/2000/svg" viewBox="0 0 27.47 25.89"><defs><style>.cls-1{fill:#212121;}.cls-2{fill:#7979cf;stroke:#fff;stroke-miterlimit:10;}</style></defs><g id="Layer_2" data-name="Layer 2"><g id="Layer_1-2" data-name="Layer 1"><path class="cls-1" d="M3.8,17.57h-1a.4.4,0,0,0-.41.4.41.41,0,0,0,.41.4h1a.4.4,0,1,0,0-.8Z"/><path class="cls-1" d="M23.6,10.37V3.88a.39.39,0,0,0-.21-.35.38.38,0,0,0-.41,0L14.76,9H13.32v-1a.4.4,0,0,0-.4-.4H10a.4.4,0,0,0-.4.4V9a1.92,1.92,0,0,0-1.88,1.92v3.45a1.91,1.91,0,0,0,1.91,1.92h.59l0,.26a4.94,4.94,0,0,0-2.33.7v0a.4.4,0,0,0-.41-.4H5.92v-.41a.4.4,0,0,0-.41-.4H.4a.4.4,0,0,0-.4.4v9.13a.4.4,0,0,0,.4.4H5.51a.4.4,0,0,0,.41-.4v-.41H7.54a.42.42,0,0,0,.41-.4,9.4,9.4,0,0,0,4.14.72H15a1.31,1.31,0,0,0,1.33-1.23,1.16,1.16,0,0,0-.1-.49,1.22,1.22,0,0,0,.8-1.15,1.19,1.19,0,0,0-.23-.72,1.23,1.23,0,0,0-.14-2A1.23,1.23,0,0,0,15.63,18h-.4a1.22,1.22,0,0,0,.08-.43,1.24,1.24,0,0,0-1.24-1.23h0v-.1h.72L23,21.66a.34.34,0,0,0,.22.07.45.45,0,0,0,.19-.05.4.4,0,0,0,.21-.35V17.51a.4.4,0,0,0-.8,0v3.07l-7.52-4.95V9.58L22.8,4.63V16.22a.4.4,0,0,0,.8,0V14.84a2.27,2.27,0,0,0,0-4.47ZM5.11,17.17v7.91H.8V16.76H5.11Zm2,.94v6.16H5.92v-6.7H7.14Zm3.28-9.77h2.09V9H10.42Zm4.08,9.24a.44.44,0,0,1-.18.36l-.13-.77A.43.43,0,0,1,14.5,17.58Zm-.43,1.24h1.56a.42.42,0,0,1,.42.42.43.43,0,0,1-.33.42H12.94a.4.4,0,1,0,0,.8H16a.43.43,0,1,1,0,.85h-3a.41.41,0,0,0,0,.81h2.85a.42.42,0,0,1,.34.41.42.42,0,0,1-.43.42H13.08a.41.41,0,0,0,0,.81h2.13a.43.43,0,0,1,.36.42.53.53,0,0,1-.53.43H12.11c-2.84,0-3.88-.64-4.16-.86V18.25a3.71,3.71,0,0,1,2.45-.94l.21,1.18a.4.4,0,0,0,.39.33h3.07Zm-3-2.57h2.16l.1.56h0l.19,1.2H11.35Zm3.42-.81H9.65a1.11,1.11,0,0,1-1.11-1.11V10.88A1.11,1.11,0,0,1,9.65,9.77h4.83v5.67ZM23.6,14V11.19a1.47,1.47,0,0,1,0,2.83Z"/><circle class="cls-2" cx="23.72" cy="3.75" r="3.25"/></g></g></svg>