<svg xmlns="http://www.w3.org/2000/svg" viewBox="0 0 28 28"><defs><style>.cls-1{fill:#ffc107;}.cls-2{fill:#fff;}</style></defs><g id="Layer_2" data-name="Layer 2"><g id="Layer_1-2" data-name="Layer 1"><circle class="cls-1" cx="14" cy="14" r="14"/><path class="cls-2" d="M20.53,7H9.68A1.47,1.47,0,0,0,8.21,8.51V10a.52.52,0,0,0,.51.51h.47v3.24a3.7,3.7,0,0,0-2.11,1L7,14.82v-.31A.51.51,0,0,0,6.49,14a.5.5,0,0,0-.49.51V16a.52.52,0,0,0,.51.52H8a.52.52,0,0,0,0-1H7.71l.07-.07a2.66,2.66,0,0,1,4.53,1.87,2.66,2.66,0,0,1-4.53,1.87,2.53,2.53,0,0,1-.73-1.43.49.49,0,0,0-.57-.41.49.49,0,0,0-.41.58,3.57,3.57,0,0,0,1,2,3.66,3.66,0,0,0,6.11-1.61H19a2,2,0,0,0,2-2v-5.8h.47A.51.51,0,0,0,22,9.94V8.49A1.47,1.47,0,0,0,20.53,7ZM20,16.36a1,1,0,0,1-1,.92H13.3a3.65,3.65,0,0,0-1.06-2.54,3.78,3.78,0,0,0-2.07-1V10.45H20v5.91ZM9.21,8.51A.48.48,0,0,1,9.68,8H20.53a.48.48,0,0,1,.47.47v.94H9.21Z"/><path class="cls-2" d="M16.62,11.24h-3a1.35,1.35,0,0,0,0,2.7h3a1.35,1.35,0,0,0,0-2.7Zm.32,1.34a.34.34,0,0,1-.33.34h-3a.34.34,0,0,1,0-.68h3A.33.33,0,0,1,16.94,12.58Z"/><path class="cls-2" d="M9.68,15.29a.53.53,0,0,0-.51.51v1.53a.55.55,0,0,0,.26.45l1,.51a.55.55,0,0,0,.23.07.54.54,0,0,0,.45-.26.51.51,0,0,0-.19-.68l-.7-.39V15.79A.49.49,0,0,0,9.68,15.29Z"/></g></g></svg>