<svg xmlns="http://www.w3.org/2000/svg" viewBox="0 0 70 70"><defs><style>.cls-1,.cls-2,.cls-3{fill:#7979cf;}.cls-1{opacity:0.05;}.cls-2{opacity:0.1;}</style></defs><title>careid</title><g id="Layer_2" data-name="Layer 2"><g id="Layer_1-2" data-name="Layer 1"><circle class="cls-1" cx="35" cy="35" r="35"/><circle class="cls-2" cx="35" cy="35" r="26.64"/><path class="cls-3" d="M44.88,27.09H39v4H31v-4H25.12a2,2,0,0,0-2,2V43.56a2,2,0,0,0,2,2H44.88a2,2,0,0,0,2-2V29.07A2,2,0,0,0,44.88,27.09ZM35,33.68a2.64,2.64,0,1,1-2.64,2.64A2.64,2.64,0,0,1,35,33.68Zm3.84,9.22H31.16a.65.65,0,0,1-.64-.82A2.64,2.64,0,0,1,33,40.27h.34a4.24,4.24,0,0,0,3.28,0H37a2.64,2.64,0,0,1,2.51,1.82A.65.65,0,0,1,38.84,42.91ZM37.64,25.78a1.32,1.32,0,0,0-1.32-1.32H33.68a1.32,1.32,0,0,0-1.32,1.32v4h5.27Z"/></g></g></svg>