<svg xmlns="http://www.w3.org/2000/svg" viewBox="0 0 42.22 42.22"><defs><style>.cls-1{fill:#7979cf;}.cls-2{fill:#fff;}</style></defs><g id="Layer_2" data-name="Layer 2"><g id="Layer_1-2" data-name="Layer 1"><circle class="cls-1" cx="21.11" cy="21.11" r="21.11"/><path class="cls-2" d="M13.9,24.65h6.67a3.9,3.9,0,0,1,3.9,3.9v1.81H10V28.55A3.9,3.9,0,0,1,13.9,24.65Zm6.67,1.13H13.9a2.78,2.78,0,0,0-2.76,2.77v.68H23.33v-.68A2.78,2.78,0,0,0,20.57,25.78Z"/><path class="cls-2" d="M17.26,15.9a3.81,3.81,0,1,1-3.86,3.81A3.83,3.83,0,0,1,17.26,15.9Zm0,1.13a2.68,2.68,0,0,0-2.68,2.68A2.66,2.66,0,1,0,17.26,17Z"/><path class="cls-2" d="M22.24,20.61h6.08a3.9,3.9,0,0,1,3.9,3.9v1.82H25.56V25.19h5.53v-.68a2.75,2.75,0,0,0-2.77-2.76H22.24Z"/><path class="cls-2" d="M25,11.86a3.81,3.81,0,0,1,0,7.62,3.81,3.81,0,0,1,0-7.62ZM25,13a2.68,2.68,0,0,0-2.67,2.68A2.65,2.65,0,0,0,25,18.35a2.69,2.69,0,0,0,2.68-2.68A2.72,2.72,0,0,0,25,13Z"/></g></g></svg>