<svg xmlns="http://www.w3.org/2000/svg" viewBox="0 0 11.47 11.47"><defs><style>.cls-1{fill:#7979cf;}</style></defs><g id="Layer_2" data-name="Layer 2"><g id="Layer_1-2" data-name="Layer 1"><path class="cls-1" d="M0,9.78a1.69,1.69,0,0,0,1.69,1.69H9.78a1.69,1.69,0,0,0,1.69-1.69V3A1.69,1.69,0,0,0,9.78,1.35h-1v-1a.34.34,0,1,0-.68,0v1h-2v-1a.34.34,0,1,0-.67,0v1h-2v-1a.34.34,0,1,0-.67,0v1h-1A1.69,1.69,0,0,0,0,3ZM.67,3a1,1,0,0,1,1-1h1V3a.34.34,0,1,0,.67,0V2h2V3a.34.34,0,1,0,.67,0V2h2V3a.34.34,0,1,0,.68,0V2h1a1,1,0,0,1,1,1v1H.67Zm0,1.69H10.79V9.78a1,1,0,0,1-1,1H1.69a1,1,0,0,1-1-1Z"/><path class="cls-1" d="M4.48,9.68a.34.34,0,0,0,.48,0L8.33,6.31a.34.34,0,0,0-.48-.48L4.72,9,3.61,7.85a.34.34,0,0,0-.48.48Z"/></g></g></svg>