<svg xmlns="http://www.w3.org/2000/svg" viewBox="0 0 28 28"><defs><style>.cls-1{fill:#03a9f4;}.cls-2{fill:#fff;}</style></defs><g id="Layer_2" data-name="Layer 2"><g id="Layer_1-2" data-name="Layer 1"><circle class="cls-1" cx="14" cy="14" r="14"/><path class="cls-2" d="M16.9,7.69a2.11,2.11,0,0,0-2.11,2.1,2,2,0,0,0,.11.65l-3.48,1.93A2.1,2.1,0,1,0,10.1,16.1a2,2,0,0,0,1.32-.47l3.48,1.93a2,2,0,0,0-.11.65,2.13,2.13,0,1,0,.62-1.48L12,14.85a2,2,0,0,0,0-1.7l3.38-1.88a2.08,2.08,0,0,0,1.5.63,2.11,2.11,0,0,0,0-4.21Zm0,1a1.14,1.14,0,1,1-1.14,1.13A1.12,1.12,0,0,1,16.9,8.66Zm-6.8,4.21A1.13,1.13,0,1,1,9,14,1.13,1.13,0,0,1,10.1,12.87Zm6.8,4.2a1.14,1.14,0,1,1-1.14,1.14A1.12,1.12,0,0,1,16.9,17.07Z"/></g></g></svg>