<svg xmlns="http://www.w3.org/2000/svg" viewBox="0 0 8.32 8.3"><defs><style>.cls-1{fill:#7979cf;}</style></defs><g id="Layer_2" data-name="Layer 2"><g id="Layer_1-2" data-name="Layer 1"><path class="cls-1" d="M8.32,2.34H7.78a2.94,2.94,0,0,0-.32-1.19A1,1,0,0,0,6.94.73,2.51,2.51,0,0,0,6.29.65H5V6.86a1.51,1.51,0,0,0,.07.53.48.48,0,0,0,.32.28,1.93,1.93,0,0,0,.73.11V8.3H2.22V7.78a1.38,1.38,0,0,0,.92-.21,1,1,0,0,0,.2-.71V.65H2.19a3.12,3.12,0,0,0-.81.08,1,1,0,0,0-.56.42A2.7,2.7,0,0,0,.54,2.34H0V0H8.32V2.34Z"/></g></g></svg>