<svg xmlns="http://www.w3.org/2000/svg" viewBox="0 0 13.47 9.4"><defs><style>.cls-1{fill:#7979cf;}</style></defs><g id="Layer_2" data-name="Layer 2"><g id="Layer_1-2" data-name="Layer 1"><path class="cls-1" d="M12.46,5.41h0a3.18,3.18,0,0,0-1.25-.51A2.37,2.37,0,0,0,12,3.1,2.4,2.4,0,1,0,8,4.9a3.86,3.86,0,0,0-1,.33,1.33,1.33,0,0,0-.4-.52A2.91,2.91,0,0,0,5.41,4.2,2.4,2.4,0,0,0,3.83,0a2.41,2.41,0,0,0-2.4,2.4,2.45,2.45,0,0,0,.81,1.8A3.08,3.08,0,0,0,1,4.71c-.15.12-.95.92-1,3.61a.39.39,0,0,0,.11.27.39.39,0,0,0,.27.11H5.81c0,.1,0,.22,0,.31a.39.39,0,0,0,.11.27.4.4,0,0,0,.27.12h6.9A.41.41,0,0,0,13.47,9C13.39,6.34,12.61,5.56,12.46,5.41ZM9.62,1.47A1.65,1.65,0,1,1,8,3.12,1.65,1.65,0,0,1,9.62,1.47ZM3.81.78A1.65,1.65,0,1,1,2.18,2.42,1.65,1.65,0,0,1,3.81.78ZM.77,8a4.76,4.76,0,0,1,.7-2.65c.77-.64,3.93-.64,4.71,0a1.33,1.33,0,0,1,.31.49A5.21,5.21,0,0,0,5.87,8Zm5.79.69A4.86,4.86,0,0,1,7.27,6C8,5.37,11.21,5.37,12,6a5.07,5.07,0,0,1,.71,2.65Z"/></g></g></svg>