<svg xmlns="http://www.w3.org/2000/svg" viewBox="0 0 10.77 10.75"><defs><style>.cls-1{fill:#ff9800;}</style></defs><g id="Layer_2" data-name="Layer 2"><g id="Layer_1-2" data-name="Layer 1"><path class="cls-1" d="M8.41,10.75H1.16A1.16,1.16,0,0,1,0,9.59V2.85A1.16,1.16,0,0,1,1.16,1.69h2.3a.39.39,0,0,1,.39.39.4.4,0,0,1-.39.39H1.16a.38.38,0,0,0-.38.38V9.59a.38.38,0,0,0,.38.38H8.41a.38.38,0,0,0,.39-.38V7.29a.39.39,0,0,1,.39-.39.4.4,0,0,1,.39.39v2.3A1.16,1.16,0,0,1,8.41,10.75Z"/><path class="cls-1" d="M10.65,1.65,9.13.11a.41.41,0,0,0-.56,0L3.38,5.31a.37.37,0,0,0-.1.17L2.66,7.61a.41.41,0,0,0,.1.38A.39.39,0,0,0,3,8.11l.1,0L5.29,7.5a.4.4,0,0,0,.18-.1l5.18-5.21A.38.38,0,0,0,10.65,1.65Zm-7,5.51.27-1,.71.7Zm1.58-.58-1-1L7.89,1.9l1,1ZM9.33,2.41l-1-1,.5-.5,1,1Z"/></g></g></svg>